<svg width="30" height="27" viewBox="0 0 30 27" fill="none" xmlns="http://www.w3.org/2000/svg">
<path d="M26.8125 15.5859L29.1992 5.02344C29.3516 4.26172 28.793 3.5 27.9805 3.5H8.07422L7.61719 1.26562C7.46484 0.707031 6.95703 0.25 6.39844 0.25H1.21875C0.507812 0.25 0 0.808594 0 1.46875V2.28125C0 2.99219 0.507812 3.5 1.21875 3.5H4.72266L8.32812 20.9688C7.46484 21.4766 6.90625 22.3906 6.90625 23.4062C6.90625 24.9805 8.17578 26.25 9.75 26.25C11.2734 26.25 12.5938 24.9805 12.5938 23.4062C12.5938 22.6445 12.2383 21.9336 11.7305 21.375H22.3438C21.8359 21.9336 21.5312 22.6445 21.5312 23.4062C21.5312 24.9805 22.8008 26.25 24.375 26.25C25.8984 26.25 27.2188 24.9805 27.2188 23.4062C27.2188 22.2891 26.5586 21.3242 25.5938 20.8672L25.8477 19.6484C26.0508 18.8867 25.4414 18.125 24.6797 18.125H11.0703L10.7148 16.5H25.5938C26.1523 16.5 26.6602 16.1445 26.8125 15.5859Z" fill="#FFC725"/>
</svg>
